# xmcd CD database file
#
# Track frame offsets:
#	182
#	28412
#	52385
#	82497
#	112290
#	135140
#
# Disc length: 2091 seconds
#
# Revision: 6
# Processed by: cddbd v1.5.2PL0 Copyright (c) Steve Scherf et al.
# Submitted via: CDex 1.70beta2
#
DISCID=5d082906
DTITLE=Manu Dibango - Deliverance
DYEAR=1990
DGENRE=Jazz
TTITLE0=Canta
TTITLE1=Baobab Sunset
TTITLE2=Village's News
TTITLE3=Deliverance
TTITLE4=Na Selele
TTITLE5=Gentlemen De Camp Yabassi
EXTD=YEAR: 1990
EXTT0=
EXTT1=
EXTT2=
EXTT3=
EXTT4=
EXTT5=
PLAYORDER=
